<?xml version="1.0" encoding="UTF-8" standalone="no"?>
<!-- Created with Inkscape (http://www.inkscape.org/) -->

<svg
   version="1.1"
   id="svg1"
   width="436.29333"
   height="124.17333"
   viewBox="0 0 436.29333 124.17333"
   sodipodi:docname="KSB_Logo_2D_DTP_White.eps"
   xmlns:inkscape="http://www.inkscape.org/namespaces/inkscape"
   xmlns:sodipodi="http://sodipodi.sourceforge.net/DTD/sodipodi-0.dtd"
   xmlns="http://www.w3.org/2000/svg"
   xmlns:svg="http://www.w3.org/2000/svg">
  <defs
     id="defs1" />
  <sodipodi:namedview
     id="namedview1"
     pagecolor="#ffffff"
     bordercolor="#000000"
     borderopacity="0.25"
     inkscape:showpageshadow="2"
     inkscape:pageopacity="0.0"
     inkscape:pagecheckerboard="0"
     inkscape:deskcolor="#d1d1d1">
    <inkscape:page
       x="0"
       y="0"
       inkscape:label="1"
       id="page1"
       width="436.29333"
       height="124.17333"
       margin="0"
       bleed="0" />
  </sodipodi:namedview>
  <g
     id="g1"
     inkscape:groupmode="layer"
     inkscape:label="1">
    <g
       id="group-R5">
      <g
         id="group-R9">
        <path
           id="path2"
           d="m 2641.99,833.191 h 386.17 c 146.04,0 232.29,-27.437 232.29,-188.191 0,-93.113 -18.62,-157.488 -115.66,-173.18 v -0.847 c 108.79,-6.86 127.42,-75.91 127.42,-168.043 0,-180.34 -84.29,-204.8519 -240.13,-204.8519 h -390.09 z m 196.03,-294.046 h 141.14 c 68.6,0 85.26,11.765 85.26,70.574 0,44.097 -6.86,60.765 -61.75,62.722 h -164.65 z m 0,-280.325 h 147.99 c 63.71,0 90.17,14.711 90.17,74.496 0,60.77 -22.54,69.582 -86.24,69.582 H 2838.02 V 258.82"
           style="fill:#ffffff;fill-opacity:1;fill-rule:nonzero;stroke:none"
           transform="matrix(0.13333333,0,0,-0.13333333,0,124.17333)" />
        <path
           id="path3"
           d="M 1663.22,833.227 1476.14,558.078 h -2.05 l -0.01,275.149 H 1277.52 V 98.0742 h 196.56 l 0.01,285.5668 2.05,0.023 202.8,-285.5898 h 243.73 L 1641.6,472.496 1901.05,833.227 h -237.83"
           style="fill:#ffffff;fill-opacity:1;fill-rule:nonzero;stroke:none"
           transform="matrix(0.13333333,0,0,-0.13333333,0,124.17333)" />
        <path
           id="path4"
           d="m 2274.6,545.355 c 215.99,-19.363 269.09,-47.574 266.17,-215.117 -2.11,-120.777 0.68,-256.6364 -320.79,-251.0232 -186.07,3.2383 -309.72,26.2382 -305.54,265.8592 l 187.05,-0.094 c -1.33,-75.972 25.81,-87.41 121.28,-89.089 91.57,-1.582 121.87,3.722 122.94,65.093 1.11,63.309 -9.62,62.516 -101.09,69.973 l -42.82,3.668 c -179.99,15.801 -285.23,16.672 -281.56,226.09 3.65,209.414 121.76,233.703 312.7,230.371 159.76,-2.797 296.1,-20.797 292.58,-222.434 l -0.53,-30.187 -187.04,-0.035 c 1.31,75.011 -29.87,78.843 -107.8,80.203 -105.21,1.84 -114.35,-19.442 -115.06,-60.352 -1.03,-58.441 27.19,-60.875 78.76,-65.672 l 80.75,-7.254"
           style="fill:#ffffff;fill-opacity:1;fill-rule:nonzero;stroke:none"
           transform="matrix(0.13333333,0,0,-0.13333333,0,124.17333)" />
        <path
           id="path5"
           d="m 162.203,695.102 c 0,40.863 33.125,73.988 73.985,73.988 h 510.8 c 40.86,0 73.985,-33.125 73.985,-73.988 V 236.195 c 0,-40.863 -33.125,-73.984 -73.985,-73.984 H 684.414 V 0 h 77.785 c 122.043,0 220.977,98.9375 220.977,220.984 v 489.305 c 0,122.047 -98.934,220.984 -220.977,220.984 H 220.977 C 98.9336,931.273 0,832.336 0,710.289 v -85.601 l 81.1016,53.132 81.1014,-53.132 v 70.414"
           style="fill:#ffffff;fill-opacity:1;fill-rule:nonzero;stroke:none"
           transform="matrix(0.13333333,0,0,-0.13333333,0,124.17333)" />
        <path
           id="path6"
           d="M 647.023,162.203 V 0 h -263.16 v 1.94531 c 0,0 97.996,48.69919 130.621,160.25769 40.004,0 132.539,0 132.539,0"
           style="fill:#ffffff;fill-opacity:1;fill-rule:nonzero;stroke:none"
           transform="matrix(0.13333333,0,0,-0.13333333,0,124.17333)" />
        <path
           id="path7"
           d="m 162.203,243.957 c 0,-45.152 36.602,-81.754 81.754,-81.754 45.148,0 81.75,36.602 81.75,81.754 0,45.148 -36.602,81.75 -81.75,81.75 H 202.402 V 487.91 h 41.555 C 378.688,487.91 487.91,378.691 487.91,243.957 487.91,109.223 378.688,0 243.957,0 109.223,0 0,109.223 0,243.957 v 338.551 l 81.1016,52.933 81.1014,-52.933 V 243.957"
           style="fill:#ffffff;fill-opacity:1;fill-rule:nonzero;stroke:none"
           transform="matrix(0.13333333,0,0,-0.13333333,0,124.17333)" />
      </g>
    </g>
  </g>
</svg>
